<?xml version="1.0" encoding="UTF-8" standalone="no"?>
<svg
   id="Layer_1"
   data-name="Layer 1"
   viewBox="0 0 348.01517 196.99"
   version="1.1"
   xml:space="preserve"
   width="348.01517"
   height="196.99001"
   sodipodi:docname="logo.svg"
   inkscape:version="1.3.2 (091e20e, 2023-11-25, custom)"
   inkscape:export-filename="..\..\OrangebeardBurpExtension\.github\logo.svg"
   inkscape:export-xdpi="96"
   inkscape:export-ydpi="96"
   xmlns:inkscape="http://www.inkscape.org/namespaces/inkscape"
   xmlns:sodipodi="http://sodipodi.sourceforge.net/DTD/sodipodi-0.dtd"
   xmlns="http://www.w3.org/2000/svg"
   xmlns:svg="http://www.w3.org/2000/svg"><sodipodi:namedview
     id="namedview1"
     pagecolor="#ffffff"
     bordercolor="#000000"
     borderopacity="0.25"
     inkscape:showpageshadow="2"
     inkscape:pageopacity="0.0"
     inkscape:pagecheckerboard="0"
     inkscape:deskcolor="#d1d1d1"
     inkscape:zoom="2.9773084"
     inkscape:cx="193.29539"
     inkscape:cy="78.426541"
     inkscape:window-width="3440"
     inkscape:window-height="1369"
     inkscape:window-x="-8"
     inkscape:window-y="-8"
     inkscape:window-maximized="1"
     inkscape:current-layer="Layer_1" /><defs
     id="defs4"><style
       id="style2">.cls-1{fill:#99425b;}.cls-2{fill:#fff;}.cls-3{fill:#e9551d;}.cls-4{fill:#ef7c10;}.cls-5{fill:#f6a307;}.cls-6{fill:#b91d1b;}.cls-7{fill:#020203;}</style></defs><path
     class="cls-3"
     d="M 132.43,25 A 67,67 0 0 1 144.27,62 62.44,62.44 0 0 0 127.81,43.48 72.41,72.41 0 0 1 136.37,79.81 32.55,32.55 0 0 0 122.56,60 c 4.3,10.75 8.43,23.54 2.07,33.22 a 93.11,93.11 0 0 0 -6,-15 81.23,81.23 0 0 1 -10.92,46 59.53,59.53 0 0 0 -8.2,-29.47 126.3,126.3 0 0 1 -5.71,38.43 101.78,101.78 0 0 0 -13.14,-33.15 133.18,133.18 0 0 1 -9.84,28.19 125.09,125.09 0 0 0 -9.87,-28 c -5.64,9.15 -4.66,20.73 -3.44,31.38 A 90.38,90.38 0 0 1 45.87,79.83 34.75,34.75 0 0 0 37.8,98 C 30.16,88.1 31.31,74.3 32.8,61.87 A 61.76,61.76 0 0 0 17.02,81.77 C 15.67,65 23.87,49.14 31.84,34.29 A 60.08,60.08 0 0 1 14.29,50.42 270.55,270.55 0 0 0 24.79,19 23.19,23.19 0 0 1 17.28,29.82 7.66,7.66 0 0 1 16.75,31.89 C 12.16,42.06 0.62,55.51 0,56.69 c 0,0 7.28,-0.82 12.33,-5.51 -7.81,14.92 5.05,42.72 11.21,49.74 -1.18,-3.18 -0.92,-7.67 1.84,-9.67 -1.35,29.05 22.88,46 22.88,46 0,0 -3.32,-6.56 -0.52,-10.25 1.57,8 35.9,19.14 35.9,35.14 0,-16.23 36.92,-28 40.76,-50.29 0.62,0 1.57,6.59 -0.33,9 17.58,-10.33 29.18,-43.12 27.9,-52.6 2.76,3 4.37,9.78 4.37,9.78 0,0 10.59,-24.5 -0.33,-45.12 C 151.88,25 147.94,21.5 144.5,19 c 1.11,5 3.64,9.58 6.13,14.07 A 26.36,26.36 0 0 0 132.43,25 Z"
     id="path10" /><path
     class="cls-4"
     d="M 78.56,22 C 40.72,21.08 26.2,9.63 26.2,0 c 0,17.83 -8.23,24 -8.92,29.83 A 23.19,23.19 0 0 0 24.79,19 270.55,270.55 0 0 1 14.29,50.38 60.08,60.08 0 0 0 31.84,34.29 C 23.87,49.14 15.67,65 17.02,81.77 A 61.35,61.35 0 0 1 32.79,61.9 c -1.48,12.43 -2.59,26.26 5,36.23 a 34.7,34.7 0 0 1 8.15,-18.2 90.45,90.45 0 0 0 11.61,51.84 c -1.18,-10.65 -2.2,-22.23 3.44,-31.38 a 124.08,124.08 0 0 1 9.87,28 133.07,133.07 0 0 0 9.84,-28.2 101.58,101.58 0 0 1 13.15,33.15 126.2,126.2 0 0 0 5.7,-38.43 59.88,59.88 0 0 1 8.2,29.48 81.17,81.17 0 0 0 10.92,-46 94.68,94.68 0 0 1 6,15 c 6.36,-9.7 2.23,-22.49 -2.06,-33.21 A 32.7,32.7 0 0 1 136.4,80 a 72.41,72.41 0 0 0 -8.56,-36.33 62.44,62.44 0 0 1 16.46,18.52 67.06,67.06 0 0 0 -11.83,-37 26.13,26.13 0 0 1 18.19,8.07 c -2.49,-4.49 -5,-9.08 -6.13,-14.07 -5.54,-3.93 -9.93,-5.44 -12.43,-19 C 132.07,9.63 116.43,22.91 78.56,22 Z"
     id="path12" /><path
     class="cls-5"
     d="m 57.94,28.22 c -6.69,5.81 -7.93,18.3 -6.65,27 a 21.76,21.76 0 0 1 6.25,-10.6 c -1.67,5 0.17,10.46 2.17,15.38 2.39,5.9 5.08,11.74 9,16.72 a 35.1,35.1 0 0 1 1.37,-20.53 c 0,2.46 1.32,4.73 2.5,6.89 a 119.6,119.6 0 0 1 11.8,31.58 c 5.34,-10.63 3.61,-23.38 7,-34.76 4.85,4.85 6.06,12.13 6.82,18.92 a 49.92,49.92 0 0 0 4.59,-28.53 29,29 0 0 1 7.9,12.71 46.24,46.24 0 0 0 -1,-23.38 c -1.48,-4.75 -4.07,-9.6 -8.63,-11.74 a 18.79,18.79 0 0 0 -5.54,-1.44 c -3.28,-0.46 -6.59,-0.72 -9.9,-1 A 64.1,64.1 0 0 0 73.39,25.34 21.75,21.75 0 0 0 62.14,29.7"
     id="path14" /><path
     class="cls-6"
     d="M 58.94,27.11 C 57.05,44 93.28,54.85 102.4,28.55 105.22,20.42 59.38,22.78 58.94,27.11 Z"
     id="path16" /><path
     class="cls-2"
     d="m 61.74,33.34 c 0,2.66 37.25,1.77 37.18,-0.66 0,-0.52 0.26,-6.13 0.3,-6.75 -10.46,0.56 -28.36,0.29 -37.51,3.08 v 4.33 z"
     id="path18" /><path
     class="cls-5"
     d="m 80.3,20.36 c 6.59,6.85 41.41,8.06 50.3,-2.53 -6.07,5.08 -14.14,4.56 -16.89,3.54 a 7.67,7.67 0 0 0 5.64,-5.9 C 104.17,30.78 99.71,4.52 80.5,18.55 64.63,7 54.2,23.37 42.1,17.7 l 5.15,3.67 c 0,0 -7.58,5 -16.89,-3.54 a 21.39,21.39 0 0 0 4.23,4.69 C 47.57,27 74.13,25.27 80.3,20.36 Z"
     id="path20" /><path
     class="cls-3"
     d="m 80.5,26.42 c 11.67,6.49 40.42,6.2 50.1,-8.56 v 0 c -8.89,10.56 -43.71,9.35 -50.3,2.5 -6.17,4.91 -32.73,6.64 -45.71,2.16 12.1,10.07 35.61,9.64 45.91,3.9 z"
     id="path22" /><path
     class="cls-3"
     d="m 84.46,156.66 c -6.75,3.77 -15.9,24.2 1.31,40.33 -1.31,-15.15 14.3,-23.81 -1.31,-40.33"
     id="path24" /><path
     class="cls-4"
     d="m 84.07,156.66 c -3.31,3.77 -6.72,24.2 1.74,40.33 -0.66,-15.15 5.9,-23.81 -1.74,-40.33"
     id="path26" /><path
     class="cls-7"
     d="m 64.53,153.41 c 1.34,-2.65 18.72,2.66 18.72,2.66 0,0 15.31,-6.1 18.1,-5.15 2.79,0.95 1.87,15.71 0,15.71 -1.87,0 -18.07,-8.27 -18.07,-8.27 0,0 -15.64,8.5 -17.18,8.27 C 64.56,166.4 63.74,155 64.53,153.41 Z"
     id="path28" /><rect
     x="180.73889"
     y="5.8628125"
     fill="#ff6633"
     width="163.50407"
     height="163.50407"
     id="rect11-4"
     style="stroke-width:5.29139" /><polygon
     fill="#ffffff"
     points="17.1,17.6 17.1,24.3 25.2,24.3 17.1,34.3 17.1,38.1 13.8,38.1 13.8,33.1 18.3,27.6 13.8,27.6 13.8,20.9 5.7,20.9 13.8,10.9 13.8,7.1 17.1,7.1 17.1,12.1 12.6,17.6 "
     id="polygon11-5"
     transform="matrix(5.291394,0,0,5.291394,180.7389,-31.706086)" /></svg>
